# xmcd
#
# Track frame offsets:
# 150
# 15135
# 32742
# 49121
# 64900
# 80840
# 97218
# 109538
# 123916
# 136123
# 151814
# 163413
# 169094
# 184870
# 191194
#
# Disc length: 2732 seconds
#
#
# Revision: 2
# Processed by: cddbd v1.5.1PL0 Copyright (c) Steve Scherf et al.
# Submitted via: FreeRIP 2.91 
#
DISCID=c70aaa0f
DTITLE=Boca Livre - Sem Limite [CD 1)
DYEAR=2001
DGENRE=MPB
TTITLE0=Toada ("Na Direção do Dia")
TTITLE1=I Need You (ao vivo)
TTITLE2=Panis Et Circencis (ao vivo) com 14 Bis
TTITLE3=Eu Sei (ao vivo)
TTITLE4=Oriente
TTITLE5=Bola de Meia, Bola de Gude (ao vivo) com 14 Bis
TTITLE6=Fazenda
TTITLE7=Änïmä
TTITLE8=Dia de Festa
TTITLE9=As Moças
TTITLE10=Correnteza
TTITLE11=Ponta de Areia
TTITLE12=Choveu
TTITLE13=Alguém Cantando
TTITLE14=Se Meu Jardim Der Flor (com MPB-4)
EXTD=
EXTT0=
EXTT1=
EXTT2=
EXTT3=
EXTT4=
EXTT5=
EXTT6=
EXTT7=
EXTT8=
EXTT9=
EXTT10=
EXTT11=
EXTT12=
EXTT13=
EXTT14=
PLAYORDER=
